<svg width="14" height="14" viewBox="0 0 14 14" fill="none" xmlns="http://www.w3.org/2000/svg">
<g clip-path="url(#clip0)">
<path d="M6.99995 2.43476C5.82518 2.43476 4.86951 3.39041 4.86951 4.56521C4.86951 5.74001 5.82515 6.69565 6.99995 6.69565C8.17475 6.69565 9.13039 5.73998 9.13039 4.56521C9.13039 3.39044 8.17475 2.43476 6.99995 2.43476ZM6.99995 6.08694C6.16118 6.08694 5.47822 5.40398 5.47822 4.56521C5.47822 3.72644 6.16118 3.04348 6.99995 3.04348C7.83872 3.04348 8.52168 3.72644 8.52168 4.56521C8.52168 5.40398 7.83875 6.08694 6.99995 6.08694Z" fill="black"/>
<path d="M11.2609 4.86957C10.4221 4.86957 9.73914 5.55253 9.73914 6.3913C9.73914 7.23007 10.4221 7.91303 11.2609 7.91303C12.0996 7.91303 12.7826 7.23007 12.7826 6.3913C12.7826 5.55253 12.0996 4.86957 11.2609 4.86957ZM11.2609 7.30434C10.7575 7.30434 10.3478 6.8947 10.3478 6.3913C10.3478 5.8879 10.7575 5.47826 11.2609 5.47826C11.7643 5.47826 12.1739 5.8879 12.1739 6.3913C12.1739 6.8947 11.7642 7.30434 11.2609 7.30434Z" fill="black"/>
<path d="M2.78235 4.86957C1.94295 4.86957 1.26062 5.55253 1.26062 6.3913C1.26062 7.23007 1.94357 7.91303 2.78235 7.91303C3.62112 7.91303 4.30407 7.23007 4.30407 6.3913C4.30407 5.55253 3.62172 4.86957 2.78235 4.86957ZM2.78235 7.30434C2.27895 7.30434 1.8693 6.8947 1.8693 6.3913C1.8693 5.8879 2.27895 5.47826 2.78235 5.47826C3.28575 5.47826 3.69539 5.8879 3.69539 6.3913C3.69539 6.8947 3.28572 7.30434 2.78235 7.30434Z" fill="black"/>
<path d="M6.99998 7.30436C4.81841 7.30436 3.04346 9.07931 3.04346 11.2609C3.04346 11.4289 3.17981 11.5652 3.34781 11.5652C3.51581 11.5652 3.65217 11.4289 3.65217 11.2609C3.65217 9.41471 5.15381 7.91307 6.99998 7.91307C8.84615 7.91307 10.3478 9.41471 10.3478 11.2609C10.3478 11.4289 10.4841 11.5652 10.6521 11.5652C10.8201 11.5652 10.9565 11.4289 10.9565 11.2609C10.9565 9.07931 9.18155 7.30436 6.99998 7.30436Z" fill="black"/>
<path d="M11.2609 8.52174C10.76 8.52174 10.2694 8.6587 9.84206 8.91741C9.69902 9.00506 9.65274 9.19192 9.7398 9.33558C9.82805 9.47924 10.0143 9.52489 10.158 9.43784C10.4897 9.23634 10.8707 9.13043 11.2609 9.13043C12.4357 9.13043 13.3914 10.0861 13.3914 11.2609C13.3914 11.4289 13.5277 11.5652 13.6957 11.5652C13.8637 11.5652 14.0001 11.4289 14.0001 11.2609C14.0001 9.7507 12.7711 8.52174 11.2609 8.52174Z" fill="black"/>
<path d="M4.1574 8.91678C3.73069 8.6587 3.2401 8.52174 2.73913 8.52174C1.22896 8.52174 0 9.7507 0 11.2609C0 11.4289 0.136357 11.5652 0.304357 11.5652C0.472357 11.5652 0.608714 11.4289 0.608714 11.2609C0.608686 10.0861 1.56436 9.13043 2.73913 9.13043C3.12931 9.13043 3.51034 9.23634 3.84149 9.43721C3.98452 9.52427 4.17201 9.47861 4.25966 9.33495C4.34731 9.19129 4.30103 9.00443 4.1574 8.91678Z" fill="black"/>
</g>
<defs>
<clipPath id="clip0">
<rect width="14" height="14" fill="white"/>
</clipPath>
</defs>
</svg>
