<svg width="14" height="14" viewBox="0 0 14 14" fill="none" xmlns="http://www.w3.org/2000/svg">
<g clip-path="url(#clip0)">
<path d="M12.1558 5.22652H5.64795C5.53469 5.22652 5.44287 5.31834 5.44287 5.43159C5.44287 5.54485 5.53469 5.63667 5.64795 5.63667H12.1558C12.269 5.63667 12.3608 5.54485 12.3608 5.43159C12.3608 5.31834 12.269 5.22652 12.1558 5.22652Z" fill="black"/>
<path d="M12.1558 6.7942H5.64795C5.53469 6.7942 5.44287 6.88603 5.44287 6.99928C5.44287 7.11254 5.53469 7.20436 5.64795 7.20436H12.1558C12.269 7.20436 12.3608 7.11254 12.3608 6.99928C12.3608 6.88603 12.269 6.7942 12.1558 6.7942Z" fill="black"/>
<path d="M12.1558 8.36192H5.64795C5.53469 8.36192 5.44287 8.45374 5.44287 8.567C5.44287 8.68026 5.53469 8.77208 5.64795 8.77208H12.1558C12.269 8.77208 12.3608 8.68026 12.3608 8.567C12.3608 8.45374 12.269 8.36192 12.1558 8.36192Z" fill="black"/>
<path d="M12.8073 3.43298H4.99662C4.33892 3.43298 3.80383 3.96805 3.80383 4.62577V9.53717C3.80383 10.1949 4.3389 10.73 4.99662 10.73H10.4712C10.5297 10.73 10.5841 10.7563 10.6204 10.8023L12.3883 13.0404C12.458 13.1286 12.5596 13.1767 12.6661 13.1767C12.7057 13.1767 12.7459 13.1701 12.7854 13.1563C12.9311 13.1057 13.0252 12.9734 13.0252 12.8192V10.7096C13.5782 10.6063 14.0001 10.1173 14.0001 9.53717V4.62574C14.0001 3.96805 13.465 3.43298 12.8073 3.43298ZM13.5899 9.53717C13.5899 9.9631 13.2434 10.3141 12.8174 10.3195C12.7052 10.3209 12.615 10.4123 12.615 10.5246V12.6657L10.9423 10.548C10.8277 10.403 10.656 10.3198 10.4712 10.3198H4.99662C4.56508 10.3198 4.21399 9.96868 4.21399 9.53714V4.62574C4.21399 4.19421 4.56506 3.84311 4.99662 3.84311H12.8073C13.2388 3.84311 13.5899 4.19421 13.5899 4.62574V9.53717Z" fill="black"/>
<path d="M3.02132 6.82394C2.88105 6.84385 2.75543 6.91606 2.6676 7.02724L1.25882 8.81077V7.02328C1.25882 6.91103 1.16859 6.81965 1.05637 6.8182C0.700055 6.81366 0.410156 6.52007 0.410156 6.16373V1.88822C0.410156 1.5272 0.703883 1.23348 1.0649 1.23348H7.86428C8.2253 1.23348 8.51903 1.5272 8.51903 1.88822V2.67933C8.51903 2.79259 8.61085 2.88441 8.72411 2.88441C8.83736 2.88441 8.92918 2.79259 8.92918 2.67933V1.88822C8.92918 1.30104 8.45146 0.823318 7.86428 0.823318H1.0649C0.477723 0.823318 0 1.30104 0 1.88822V6.16373C0 6.67415 0.365613 7.10539 0.848695 7.20618V9.02088C0.848695 9.16657 0.937617 9.29161 1.07527 9.33941C1.11259 9.35237 1.1506 9.35866 1.188 9.35866C1.28855 9.35866 1.38466 9.31321 1.45048 9.2299L2.98949 7.28149C3.0117 7.25335 3.0435 7.23508 3.07899 7.23002C3.19112 7.21411 3.26914 7.11029 3.2532 6.99815C3.23728 6.88601 3.13362 6.80795 3.02132 6.82394Z" fill="black"/>
</g>
<defs>
<clipPath id="clip0">
<rect width="14" height="14" fill="white"/>
</clipPath>
</defs>
</svg>
