<svg width="14" height="14" viewBox="0 0 14 14" fill="none" xmlns="http://www.w3.org/2000/svg">
<g clip-path="url(#clip0)">
<path d="M13.125 6.41666C13.0567 6.41666 12.9891 6.39274 12.9354 6.34666L11.0833 4.75883L9.23125 6.34666C9.14492 6.42074 9.02358 6.43824 8.91975 6.38983C8.8165 6.34258 8.75 6.23874 8.75 6.12499V0.874999C8.75 0.392583 9.14258 0 9.625 0H12.5417C13.0241 0 13.4167 0.392583 13.4167 0.874999V6.12499C13.4167 6.23874 13.3502 6.34258 13.2469 6.38983C13.2078 6.40791 13.1664 6.41666 13.125 6.41666ZM11.0833 4.08333C11.151 4.08333 11.2187 4.10666 11.2729 4.15333L12.8333 5.49091V0.874999C12.8333 0.714583 12.7027 0.583333 12.5417 0.583333H9.625C9.464 0.583333 9.33333 0.714583 9.33333 0.874999V5.49091L10.8937 4.15333C10.948 4.10666 11.0157 4.08333 11.0833 4.08333Z" fill="black"/>
<path d="M0.875041 10.5C0.714041 10.5 0.583374 10.3693 0.583374 10.2083V1.45833C0.583374 0.653916 1.23787 0 2.04171 0H7.29171C7.45271 0 7.58337 0.130667 7.58337 0.291667C7.58337 0.452666 7.45271 0.583333 7.29171 0.583333H2.04171C1.55929 0.583333 1.16671 0.975916 1.16671 1.45833V10.2083C1.16671 10.3693 1.03604 10.5 0.875041 10.5Z" fill="black"/>
<path d="M4.37504 11.6667H2.04171C1.23787 11.6667 0.583374 11.0128 0.583374 10.2083C0.583374 9.40392 1.23787 8.75 2.04171 8.75H10.5V7.29167C10.5 7.13067 10.6307 7 10.7917 7C10.9527 7 11.0834 7.13067 11.0834 7.29167V9.04167C11.0834 9.20267 10.9527 9.33333 10.7917 9.33333H2.04171C1.55929 9.33333 1.16671 9.72592 1.16671 10.2083C1.16671 10.6908 1.55929 11.0833 2.04171 11.0833H4.37504C4.53604 11.0833 4.66671 11.214 4.66671 11.375C4.66671 11.536 4.53604 11.6667 4.37504 11.6667Z" fill="black"/>
<path d="M10.7917 11.6667H7.29167C7.13067 11.6667 7 11.536 7 11.375C7 11.214 7.13067 11.0833 7.29167 11.0833H10.5V9.04167C10.5 8.88067 10.6307 8.75 10.7917 8.75C10.9527 8.75 11.0833 8.88067 11.0833 9.04167V11.375C11.0833 11.536 10.9527 11.6667 10.7917 11.6667Z" fill="black"/>
<path d="M7.29172 14C7.22697 14 7.16222 13.9784 7.10913 13.9364L5.83338 12.9156L4.55704 13.9364C4.46954 14.0064 4.34996 14.0198 4.24846 13.9714C4.14754 13.9224 4.08337 13.8203 4.08337 13.7083V10.2083C4.08337 10.0473 4.21404 9.91666 4.37504 9.91666C4.53604 9.91666 4.66671 10.0473 4.66671 10.2083V13.1017L5.65138 12.3136C5.75813 12.2284 5.90921 12.2284 6.01596 12.3136L7.00005 13.1017V10.2083C7.00005 10.0473 7.13072 9.91666 7.29172 9.91666C7.45272 9.91666 7.58338 10.0473 7.58338 10.2083V13.7083C7.58338 13.8203 7.51922 13.9224 7.4183 13.9708C7.37805 13.9901 7.33488 14 7.29172 14Z" fill="black"/>
<path d="M8.45829 10.5H3.20829C3.04729 10.5 2.91663 10.3693 2.91663 10.2083C2.91663 10.0473 3.04729 9.91666 3.20829 9.91666H8.45829C8.61929 9.91666 8.74996 10.0473 8.74996 10.2083C8.74996 10.3693 8.61929 10.5 8.45829 10.5Z" fill="black"/>
</g>
<defs>
<clipPath id="clip0">
<rect width="14" height="14" fill="white"/>
</clipPath>
</defs>
</svg>
